<svg width="16" height="16" viewBox="0 0 23 23" fill="none" xmlns="http://www.w3.org/2000/svg">
<path fill-rule="evenodd" clip-rule="evenodd" d="M11.5 0.958344C5.6781 0.958344 0.958313 5.67813 0.958313 11.5C0.958313 17.3219 5.6781 22.0417 11.5 22.0417C17.3219 22.0417 22.0416 17.3219 22.0416 11.5C22.0416 5.67813 17.3219 0.958344 11.5 0.958344ZM13.615 8.34422C13.7896 8.16347 13.8862 7.9214 13.884 7.67013C13.8818 7.41885 13.781 7.17849 13.6033 7.00081C13.4257 6.82313 13.1853 6.72234 12.934 6.72016C12.6828 6.71797 12.4407 6.81457 12.2599 6.98913L8.4266 10.8225C8.24694 11.0022 8.14602 11.2459 8.14602 11.5C8.14602 11.7541 8.24694 11.9978 8.4266 12.1776L12.2599 16.0109C12.4407 16.1855 12.6828 16.282 12.934 16.2799C13.1853 16.2777 13.4257 16.1769 13.6033 15.9992C13.781 15.8215 13.8818 15.5812 13.884 15.3299C13.8862 15.0786 13.7896 14.8365 13.615 14.6558L10.4592 11.5L13.615 8.34422Z" fill="#13017B"/>
</svg>
