<svg width="22" height="22" viewBox="0 0 22 22" fill="none" xmlns="http://www.w3.org/2000/svg">
<path fill-rule="evenodd" clip-rule="evenodd" d="M10.5416 21.0833C16.3635 21.0833 21.0833 16.3636 21.0833 10.5417C21.0833 4.7198 16.3635 1.10315e-05 10.5416 1.05225e-05C4.71977 1.00135e-05 -1.76429e-05 4.7198 -1.81519e-05 10.5417C-1.86609e-05 16.3636 4.71977 21.0833 10.5416 21.0833ZM8.42661 13.6975C8.25204 13.8782 8.15544 14.1203 8.15763 14.3716C8.15981 14.6228 8.2606 14.8632 8.43828 15.0409C8.61596 15.2186 8.85632 15.3193 9.1076 15.3215C9.35887 15.3237 9.60095 15.2271 9.78169 15.0526L13.615 11.2192C13.7947 11.0395 13.8956 10.7958 13.8956 10.5417C13.8956 10.2876 13.7947 10.0438 13.615 9.86414L9.78169 6.0308C9.60095 5.85623 9.35887 5.75964 9.1076 5.76182C8.85633 5.76401 8.61596 5.86479 8.43828 6.04248C8.2606 6.22016 8.15981 6.46052 8.15763 6.71179C8.15544 6.96306 8.25204 7.20514 8.42661 7.38589L11.5824 10.5417L8.42661 13.6975Z" fill="#13017B"/>
</svg>
